<svg xmlns="http://www.w3.org/2000/svg" xmlns:xlink="http://www.w3.org/1999/xlink" class="icon" viewBox="0 0 1024 1024" width="200" height="200"><defs><style type="text/css"></style></defs><path d="M527.36 256a121.6 121.6 0 0 0-12.48-54.08C704 270.72 806.4 50.88 806.4 50.88c-204.48-64-288 50.88-314.56 107.84A166.08 166.08 0 0 0 352 74.24a48 48 0 0 0 0 96c55.36 0 80.64 88.64 81.28 91.52A367.68 367.68 0 1 0 527.36 256z m-23.36 336a56 56 0 1 1 56-56 56 56 0 0 1-56 56z m64-160a56 56 0 1 1 56 56 56 56 0 0 1-56-56z m96 208a56 56 0 1 1 56-56A56 56 0 0 1 664 640z" fill="#231F20"></path></svg>