<?xml version="1.0" encoding="utf-8"?>
<!-- Generator: Adobe Illustrator 24.0.0, SVG Export Plug-In . SVG Version: 6.00 Build 0)  -->
<svg version="1.1" id="Camada_1" xmlns="http://www.w3.org/2000/svg" xmlns:xlink="http://www.w3.org/1999/xlink" x="0px" y="0px"
	 viewBox="0 0 80 80" style="enable-background:new 0 0 80 80;" xml:space="preserve">
<style type="text/css">
	.st0{fill:#FFFFFF;}
</style>
<g>
	<path class="st0" d="M51,6.2H40.9H29l0,0c1.3,0.4,2.4,1.2,3.1,2.4L55,48.2c0.2,0.3,0.7,0.3,0.9,0l4.6-8l5-8.7
		c0.1-0.2,0.1-0.4,0-0.5L51,6.2z"/>
	<path class="st0" d="M70.9,22L80,6.2H59.2l0,0c1.3,0.4,2.4,1.2,3.1,2.4L70,22C70.2,22.4,70.7,22.4,70.9,22z"/>
	<path class="st0" d="M20.9,6.2H0l0,0c1.3,0.4,2.4,1.2,3.1,2.4l18.2,31.7l19.1,33.3c0.2,0.3,0.7,0.3,0.9,0l9.1-15.8
		c0.1-0.2,0.1-0.4,0-0.5L20.9,6.2z"/>
</g>
</svg>
